<svg xmlns="http://www.w3.org/2000/svg" width="12" height="12" fill="none"><g clip-path="url(#a)"><path stroke="#000" stroke-linecap="round" stroke-width="1.1" d="M.999 1.5h3a2 2 0 0 1 2 2v7a1.5 1.5 0 0 0-1.5-1.5h-3.5V1.5Z"/><path fill="#000" d="M10.998 1.5h.55V.95h-.55v.55Zm-3 0V.95v.55Zm-2 2h-.55.55Zm-.55 7a.55.55 0 1 0 1.1 0h-1.1ZM7.499 9v-.55V9Zm3.5 0v.55h.55V9h-.55Zm0-8.05h-3v1.1h3V.95Zm-3 0a2.55 2.55 0 0 0-1.803.747l.778.778A1.45 1.45 0 0 1 8 2.05V.95Zm-1.803.747A2.55 2.55 0 0 0 5.45 3.5h1.1c0-.385.152-.753.424-1.025l-.778-.778ZM5.45 3.5v7h1.1v-7h-1.1Zm1.1 7c0-.252.1-.494.278-.672l-.778-.778a2.05 2.05 0 0 0-.6 1.45h1.1Zm.278-.672a.95.95 0 0 1 .672-.278v-1.1a2.05 2.05 0 0 0-1.45.6l.778.778Zm.672-.278h3.5v-1.1h-3.5v1.1Zm4.05-.55V1.5h-1.1V9h1.1Z"/></g><defs><clipPath id="a"><path fill="#fff" d="M-.001 0h12v12h-12z"/></clipPath></defs></svg>