<svg xmlns="http://www.w3.org/2000/svg" width="34" height="34" fill="none"><path fill="#000" d="M28.536 19.547a5.569 5.569 0 0 0-3.95-1.636c-1.542 0-2.94.625-3.95 1.636A5.568 5.568 0 0 0 19 23.497c0 1.542.625 2.939 1.636 3.95a5.569 5.569 0 0 0 3.95 1.636c1.543 0 2.94-.625 3.95-1.636a5.568 5.568 0 0 0 1.636-3.95 5.569 5.569 0 0 0-1.636-3.95Zm-3.97 1.73a.85.85 0 0 0-.58.248.79.79 0 0 0-.237.562h-.002v.019c.014.602.528.754 1.032.904.882.261 1.746.518 1.73 1.873a1.947 1.947 0 0 1-.567 1.359h-.002c-.23.23-.517.401-.838.491l.004.551a.542.542 0 0 1-1.084.009l-.004-.575a1.922 1.922 0 0 1-1.356-1.84.544.544 0 0 1 1.088 0 .834.834 0 0 0 .837.838c.23 0 .437-.092.587-.242a.858.858 0 0 0 .252-.599c.006-.538-.468-.68-.952-.823-.881-.261-1.779-.528-1.81-1.924v-.037l-.003-.005c0-.52.215-.988.56-1.33a1.94 1.94 0 0 1 .797-.478l-.004-.567a.542.542 0 1 1 1.084-.009l.004.56c.323.09.612.262.843.493l.002.003c.348.348.564.828.564 1.359a.544.544 0 0 1-1.088 0 .836.836 0 0 0-.837-.837v-.003h-.02Zm5.26-3.02a7.388 7.388 0 0 0-5.24-2.17c-2.046 0-3.899.83-5.24 2.17a7.388 7.388 0 0 0-2.17 5.24c0 2.047.83 3.899 2.17 5.24a7.387 7.387 0 0 0 5.24 2.17c2.046 0 3.899-.83 5.24-2.17a7.386 7.386 0 0 0 2.17-5.24c0-2.046-.83-3.899-2.17-5.24Zm-.52 9.96a6.654 6.654 0 0 1-4.72 1.954 6.653 6.653 0 0 1-4.719-1.954 6.655 6.655 0 0 1-1.955-4.72c0-1.843.747-3.512 1.955-4.72a6.652 6.652 0 0 1 4.72-1.954c1.842 0 3.511.747 4.719 1.955a6.654 6.654 0 0 1 1.954 4.72 6.654 6.654 0 0 1-1.954 4.718Zm-14.32-4.295a.497.497 0 0 1 0-.995h1.385a8.255 8.255 0 0 1 2.402-5.217 8.257 8.257 0 0 1 6.327-2.412V13.36c0-.291-.119-.556-.31-.747a1.054 1.054 0 0 0-.747-.31h-2.904l4.283-2.683 3.184 5.083c.009.014.01.032.007.05a.062.062 0 0 1-.027.04l-1.416.887a8.3 8.3 0 0 1 1.13.46l.81-.508a1.052 1.052 0 0 0 .335-1.454L22.811 3.59a1.053 1.053 0 0 0-1.454-.335l-14.445 9.05h-3.85c-.29 0-.554.12-.747.31-.192.191-.311.455-.311.746v12.498c0 .292.119.556.31.747h.001c.193.191.457.31.746.31h13.991a8.243 8.243 0 0 1-.698-2.993h-1.367Zm6.895-19.829a.066.066 0 0 1 .05-.006.061.061 0 0 1 .04.026l1.557 2.485-9.107 5.706H8.776l13.105-8.21ZM7.493 23.923H5.772a.497.497 0 0 1 0-.996h1.721a.497.497 0 1 1 0 .995Zm1.88-5.349a.497.497 0 0 1-.497.498H5.117a.497.497 0 0 1-.497-.498v-3.3c0-.275.223-.497.497-.497h3.759c.274 0 .497.222.497.497v3.3Zm2.734 5.348h-1.722a.497.497 0 0 1 0-.995h1.722a.497.497 0 0 1 0 .995Zm.18-7.09c0-.275.222-.497.497-.497h4.457a.497.497 0 0 1 0 .995h-4.457a.498.498 0 0 1-.497-.498Zm-6.672-1.06h2.763v2.305H5.615V15.77Z"/></svg>