<svg xmlns="http://www.w3.org/2000/svg" width="34" height="34" fill="none"><path fill="#000" fill-rule="evenodd" d="m4.672 14.563-2.65 11.68c1.612.779 3.355 1.28 5.228 1.52 1.928.26 4.004.223 6.192-.037l3.096-5.821V8.889h-6.1c-.11 1.502-.778 2.856-1.78 3.875a6.128 6.128 0 0 1-3.986 1.799Zm19.801-5.674a5.156 5.156 0 0 0 1.502 3.19 5.256 5.256 0 0 0 3.17 1.501L28.09 8.89h-3.616ZM9.975 7.907h17.928V6.053H6.137v1.854h3.838Zm7.527.982v13.016l3.097 5.821c2.187.26 4.264.297 6.192.037 1.872-.24 3.615-.741 5.228-1.52l-2.651-11.68a6.143 6.143 0 0 1-4.079-1.799 6.21 6.21 0 0 1-1.798-3.875h-5.989ZM4.895 13.562c1.205-.13 2.262-.686 3.078-1.484A5.157 5.157 0 0 0 9.474 8.89H5.952l-1.057 4.673Z" clip-rule="evenodd"/></svg>