<svg xmlns="http://www.w3.org/2000/svg" width="32" height="32" fill="none"><circle cx="16" cy="16" r="15.75" stroke="#D9D9D9" stroke-width=".5"/><path stroke="#000" stroke-linecap="round" stroke-linejoin="round" d="M21.5 14.727c0 3.898-6 8.273-6 8.273s-6-4.284-6-8.273c0-1.519.632-2.975 1.757-4.05A6.148 6.148 0 0 1 15.5 9c1.591 0 3.117.603 4.243 1.678a5.598 5.598 0 0 1 1.757 4.05Z"/><path stroke="#000" stroke-linecap="round" stroke-linejoin="round" d="M15.5 16.636c1.105 0 2-.854 2-1.909 0-1.054-.895-1.909-2-1.909s-2 .855-2 1.91c0 1.054.895 1.908 2 1.908Z"/></svg>