<svg xmlns="http://www.w3.org/2000/svg" width="34" height="34" fill="none"><path fill="#000" d="M12.517 9.87c.029.038.051.077.077.119a2.157 2.157 0 0 1 3.994 1.126v.135l.54.3.387-1.636a.321.321 0 0 1 .608-.054c.438 1.007 1.458 1.458 1.986 1.628a4.757 4.757 0 0 0-.19-1.429.322.322 0 0 1 .602-.225c.26.599 1.12 1.162 1.7 1.477.357-3.73-3.348-4.506-3.512-4.55-3.502-.406-5.671 2.355-6.192 3.108ZM3.588 9.821a.322.322 0 0 1 .622.164 6.736 6.736 0 0 0-.084 1.436 2.781 2.781 0 0 0 1.93-1.545.322.322 0 0 1 .323-.19.322.322 0 0 1 .273.27 8.64 8.64 0 0 0 .393 1.57 5.972 5.972 0 0 0 1.706-1.248 2.17 2.17 0 0 1 1.995-1.33h.107a5.352 5.352 0 0 0-.239-.282c-.927-1.034-2.816-2.43-5.909-1.706-.103.035-3.112 1.09-2.8 4.364.531-.245 1.43-.772 1.683-1.503Z"/><path fill="#000" d="M14.428 12.621a1.516 1.516 0 1 0-1.51-1.515c.004.143.027.284.069.421a2.173 2.173 0 0 1 1.441 1.095ZM25.767 21.134a24.98 24.98 0 0 0-.553-7.331 8.368 8.368 0 0 0-2.575 3.015c.119.576.82 3.08 3.128 4.316ZM21.303 20.436a27.905 27.905 0 0 0-.643 7.335l3.05.38a14.752 14.752 0 0 0 1.398-3.3c-2.025-1.039-3.258-3.183-3.805-4.415ZM25.712 21.836c-2.153-1.043-3.109-3.003-3.495-4.14a15.396 15.396 0 0 0-.644 1.716c.222.599 1.404 3.54 3.702 4.8.197-.782.343-1.576.437-2.376ZM12.275 11.105a1.516 1.516 0 1 0-1.65 1.503 2.163 2.163 0 0 1 1.686-1.13 2.228 2.228 0 0 1-.036-.373ZM12.066 9.39a8.922 8.922 0 0 1 2.5-2.317v-1.61l-.238-.389a.32.32 0 0 1-.022-.293l.251-.595a.586.586 0 0 0-.245-.419 1.004 1.004 0 0 0-.733-.013C11.75 5.01 11.299 7.79 11.229 8.4c.23.263.436.545.618.843.07.045.148.097.219.148ZM12.517 15.151a1.516 1.516 0 1 0 0-3.032 1.516 1.516 0 0 0 0 3.032ZM24.625 8.044h5.593a1.61 1.61 0 0 0 0-3.218.322.322 0 0 1-.225-.106.322.322 0 0 1-.096-.232.166.166 0 0 0 0-.039c0-.914-1.05-1.66-2.35-1.66s-2.356.746-2.356 1.667v.032a.321.321 0 0 1-.322.328h-.247a1.609 1.609 0 1 0 0 3.219l.003.01ZM17.064 24.89h.531c-.215-1.493-1.155-7.402-3.012-10.621a2.157 2.157 0 0 1-1.867 1.503 33.414 33.414 0 0 1 1.773 9.26 21.654 21.654 0 0 1 2.575-.142Z"/><path fill="#000" d="M31.796 30.574h-3.367c-.512-1.287-1.738-2.449-3.518-3.35-.164.347-.325.67-.512 1.01l1.137.142a.322.322 0 1 1-.042.644h-.039l-1.57-.197a.345.345 0 0 1-.084 0l-5.027-.64a.322.322 0 0 1-.273-.236.324.324 0 0 1 .353-.408l1.155.145a27.963 27.963 0 0 1-.022-1.947 20.68 20.68 0 0 0-2.923-.21c-5.445 0-10.202 2.141-11.364 5.04H2.748a.322.322 0 0 0 0 .645h29.048a.322.322 0 1 0 0-.644v.006Z"/></svg>