<svg xmlns="http://www.w3.org/2000/svg" width="32" height="32" fill="none"><circle cx="16" cy="16" r="15.75" stroke="#D9D9D9" stroke-width=".5"/><path stroke="#000" d="M9.5 14.667v6c0 .736.597 1.333 1.333 1.333h9.334c.736 0 1.333-.597 1.333-1.333v-6"/><path stroke="#000" stroke-miterlimit="16" d="M17.389 22v-4c0-.736-.597-1.333-1.333-1.333h-1.334c-.736 0-1.333.597-1.333 1.333v4"/><path stroke="#000" d="m22.046 14.243-1.13-3.953a.4.4 0 0 0-.384-.29h-2.699l.317 3.803c.01.124.078.236.185.3.26.155.768.442 1.165.564.677.208 1.667.133 2.23.063a.38.38 0 0 0 .316-.487Z"/><path stroke="#000" d="M16.833 14.667c.379-.117.859-.383 1.128-.542a.386.386 0 0 0 .186-.366L17.833 10h-4.666l-.314 3.76a.386.386 0 0 0 .186.365c.27.159.75.425 1.128.542.995.306 1.671.306 2.666 0Z"/><path stroke="#000" d="m10.084 10.29-1.13 3.953a.38.38 0 0 0 .315.487c.564.07 1.554.145 2.231-.063.397-.122.905-.409 1.165-.564a.385.385 0 0 0 .185-.3L13.167 10h-2.699a.4.4 0 0 0-.384.29Z"/></svg>