<svg xmlns="http://www.w3.org/2000/svg" width="34" height="34" fill="none"><path fill="#000" d="M12.671 16.996c.858 2.407 2.298 4.925 4.32 7.555 2.03-2.619 3.477-5.128 4.341-7.529-.952-.537-4.847-2.356-8.66-.026ZM16.992 1.989a12.614 12.614 0 0 0-4.69 6.219c4.117-2.79 7.809-1.041 9.38 0a12.598 12.598 0 0 0-4.69-6.22Z"/><path fill="#000" d="M11.516 8.563a12.961 12.961 0 0 1 4.405-6.598c-4.657.327-8.565 2.854-10.209 6.294 2.337-1.1 4.861-.137 5.804.304ZM22.085 9.715c-.033-.17-.07-.327-.105-.497-.622-.537-4.962-3.97-9.957 0-.036.16-.072.327-.101.487-.377 2.231-.192 4.52.54 6.661 3.927-2.31 7.885-.605 9.08.017a13.67 13.67 0 0 0 .543-6.668ZM22.48 8.527c2.256-1.309 4.61-.733 5.8-.284-1.646-3.434-5.547-5.95-10.199-6.278a12.958 12.958 0 0 1 4.4 6.562ZM12.023 17.134c-1.198-.252-3.892-.56-4.978.41.397.473.835.911 1.309 1.308.187.17 4.31 3.853 5.171 5.892h2.812c-2.01-2.63-3.448-5.166-4.314-7.61Z"/><path fill="#000" d="M22.645 9.19c.026.132.055.263.082.394a14.213 14.213 0 0 1-.498 6.83c3.028-.605 4.553.18 5.142.632.311-.42.586-.868.822-1.335a8.314 8.314 0 0 0 .448-6.592c-.59-.282-3.44-1.516-5.996.072ZM11.794 16.424a14.234 14.234 0 0 1-.514-6.838c.023-.124.05-.245.075-.366-.798-.38-3.715-1.6-6.042.03a8.317 8.317 0 0 0-.432 2.618 8.605 8.605 0 0 0 1.755 5.155c1.305-1.116 3.99-.802 5.158-.6Z"/><path fill="#000" d="M21.98 17.133c-.858 2.438-2.291 4.985-4.317 7.623h2.801c.861-2.053 4.985-5.735 5.165-5.892.473-.399.911-.837 1.31-1.31-.485-.36-1.935-1.115-4.96-.421Z"/><path fill="#000" d="M19.63 27.788h-5.256a.327.327 0 0 1-.316-.239.327.327 0 0 1-.008-.14l.494-3.031a.327.327 0 0 1 .327-.275h4.268a.327.327 0 0 1 .328.275l.494 3.03a.328.328 0 0 1-.327.38h-.004Zm-4.873-.654h4.49l-.386-2.377h-3.722l-.382 2.377Z"/><path fill="#000" d="M21.132 27.46v3.194a1.384 1.384 0 0 1-1.381 1.382h-5.499a1.387 1.387 0 0 1-1.385-1.382V27.46a.327.327 0 0 1 .328-.328h7.61a.327.327 0 0 1 .327.328Z"/></svg>