<svg xmlns="http://www.w3.org/2000/svg" width="16" height="16" fill="none"><g stroke="#000" stroke-linecap="round" stroke-linejoin="round" stroke-width="1.2" clip-path="url(#a)"><path d="M11.959 11.96a6.714 6.714 0 0 1-3.96 1.373C3.332 13.333.665 8 .665 8A12.3 12.3 0 0 1 4.04 4.04m2.56-1.213a6.08 6.08 0 0 1 1.4-.16C12.665 2.667 15.332 8 15.332 8c-.405.757-.887 1.47-1.44 2.127m-4.48-.714a2 2 0 1 1-2.827-2.826M.665.667l14.667 14.666"/></g><defs><clipPath id="a"><path fill="#fff" d="M-.001 0h16v16h-16z"/></clipPath></defs></svg>