<svg xmlns="http://www.w3.org/2000/svg" width="32" height="32" fill="none"><circle cx="16" cy="16" r="15.75" stroke="#D9D9D9" stroke-width=".5"/><path stroke="#000" stroke-linejoin="round" d="M18.833 19c-1.16 1.16-3.832.171-5.168-1.165-1.336-1.336-2.325-4.008-1.165-5.168.336-.336.799-.376 1.081-.363a.53.53 0 0 1 .4.237l.635.889a.667.667 0 0 1-.071.859l-.6.6c.11.334.466 1.134 1 1.667.532.533 1.332.89 1.666 1l.6-.6a.667.667 0 0 1 .86-.072l.888.635a.53.53 0 0 1 .237.4c.013.282-.027.745-.363 1.081Z"/><path stroke="#000" stroke-linejoin="round" d="M15.5 23a7 7 0 1 0-6.063-3.5l-.587 3.15 3.15-.587a6.968 6.968 0 0 0 3.5.937Z"/></svg>